<svg id="Layer_1" data-name="Layer 1" xmlns="http://www.w3.org/2000/svg" viewBox="0 0 5175.48 646.87"><defs><style>.cls-3{fill:#231f20}</style><clipPath id="clip-path" transform="translate(0 -.13)"><path fill="none" d="M.06.13h5175.42v646.81H.06z"/></clipPath></defs><g clip-path="url(#clip-path)"><path class="cls-3" d="M981.86 205.65v90.32h207.03v53.22H981.86v156.73h-58.59V152.43h356.43v53.22H981.86"/><path class="cls-3" d="M1684 506.05l-95.68-134.76h-178.7v134.76H1351V152.56h278.8q56.15 0 87.64 29.77t31.49 81.54q0 23.43-6.83 41.5a90.19 90.19 0 0 1-19.29 31 96.65 96.65 0 0 1-29.3 20.75 145.79 145.79 0 0 1-36.38 11.23l94.73 137.69H1684m-12.44-201.9q17.32-13.9 17.33-40.28 0-58.1-73.24-58.1h-206v112.3H1621q33.17.01 50.52-13.91zM2177.1 506.05l-41-79.1h-237.8l-41 79.1h-64l187-353.49h73.73l187 353.49h-64m-159.59-303.21l-90.33 170.89h180.17z" transform="translate(0 -.13)"/><path class="cls-3" d="M2642.41 505.92l-270.5-290.02v290.02h-58.58V152.43h72.74l270.01 290.01V152.43h58.59v353.49h-72.26"/><path class="cls-3" d="M3202 252.16a168.54 168.54 0 0 0-64.7-43.78q-36.89-13.84-85.7-13.83-37.09 0-67.62 10t-52.24 27.94a125.87 125.87 0 0 0-33.74 42.42 120.15 120.15 0 0 0-12 53.41q0 29.88 11.72 54.64a119.27 119.27 0 0 0 33.7 42.39q22 17.65 53.21 27.45t70.32 9.79q47.84 0 83.49-13.67t64-44.43l50.3 27.83q-38.61 44.81-86.93 64.14t-114.25 19.35q-46.38 0-86.42-12.46t-69.32-34.42Q2825 415.73 2825 328.32q0-85.44 71.78-139.64 29.3-22.45 69.09-34.9t85.68-12.46q65.45 0 116.94 23.19a225 225 0 0 1 86.67 68.6l-53.21 19" transform="translate(0 -.13)"/><path class="cls-3" d="M3363.06 505.92V152.43h356.42v53.22h-297.83v90.32h207.01v53.22h-207.01V452.7h311.5v53.22h-370.09"/><path class="cls-3" d="M4045.4 205.28a335.94 335.94 0 0 0-81.29-9.77q-55.18 0-83.5 12.94t-28.31 34.92q0 23.43 30.76 34.18a145.16 145.16 0 0 0 32.47 7.55q17.82 2.22 39 3.43t45.66 2.68q24.42 1.47 51.26 4.89 66.4 8.29 98.14 32.22t31.74 68.36q0 56.16-49.07 86.91t-143.79 30.76q-67.87 0-119.86-14.4t-90.58-45.17l32.23-42.48q43 26.37 86.42 38.57t92.32 12.21q63.47 0 96.19-16.84t32.71-45.66q0-19-11-29.29t-32-15.62q-21-5.37-51.52-7.57t-69.57-4.65q-41-2.91-71.53-8.05t-51-15.37q-20.52-10.27-30.76-26.86t-10.26-42q0-49.81 45.9-78.61t132.31-28.8q114.26 0 191.4 52.24l-35.65 39.54a360.55 360.55 0 0 0-78.85-30.27M4629.61 252.16a168.36 168.36 0 0 0-64.69-43.78q-36.89-13.84-85.7-13.83-37.1 0-67.62 10t-52.25 27.94a126.08 126.08 0 0 0-33.68 42.39 120 120 0 0 0-12 53.41q0 29.88 11.72 54.64a119.32 119.32 0 0 0 33.68 42.39q22 17.65 53.22 27.45t70.31 9.79q47.85 0 83.49-13.67t64-44.43l50.29 27.83q-38.6 44.81-86.91 64.14t-114.26 19.35q-46.4 0-86.41-12.46t-69.34-34.42q-70.8-53.21-70.79-140.61 0-85.44 71.77-139.64 29.28-22.45 69.08-34.9t85.69-12.46q65.43 0 116.94 23.19a225 225 0 0 1 86.67 68.6l-53.22 19M5111.52 506.05l-41-79.1h-237.8l-41 79.1h-64l187-353.49h73.72l187 353.49h-64m-159.58-303.21l-90.33 170.89h180.16z" transform="translate(0 -.13)"/><path d="M323.44 647C145.09 647 0 501.91 0 323.57S145.09.13 323.44.13s323.43 145.09 323.43 323.44S501.78 647 323.44 647M120.82 490.13c43.25 54 105.18 86.57 173.18 94.34v-94.34zM355 584.46c120-13.92 215.41-109.33 229.34-230.33H355zm-61-155.33v-75H62.53a232 232 0 0 0 20.69 75zm290.34-138c-3-26-10-48-20.69-74H355v74zm-290.34 0V62.67C173 76.59 76.47 173.13 62.54 291.13zm232-135c-43.25-52-104-85.7-171-93.47v93.47z" transform="translate(0 -.13)" fill="#010101"/></g></svg>