<?xml version="1.0" encoding="UTF-8" ?>
<!DOCTYPE svg PUBLIC "-//W3C//DTD SVG 1.1//EN" "http://www.w3.org/Graphics/SVG/1.1/DTD/svg11.dtd">
<svg width="1836pt" height="469pt" viewBox="0 0 1836 469" version="1.1" xmlns="http://www.w3.org/2000/svg">
<g id="#007bffff">
<path fill="#007bff" opacity="1.00" d=" M 62.00 129.03 C 114.58 101.01 167.38 73.37 220.02 45.45 C 270.82 73.27 321.61 101.11 372.51 128.76 C 372.48 188.27 372.54 247.78 372.47 307.29 C 347.99 291.00 323.28 275.04 298.97 258.50 C 272.62 275.70 246.32 293.00 219.92 310.12 C 203.39 297.31 186.62 284.80 170.06 272.04 C 161.89 266.04 154.08 259.55 145.72 253.82 C 117.50 271.36 89.38 289.05 61.04 306.39 C 61.03 298.24 60.72 290.08 61.49 281.96 C 61.51 254.97 61.50 227.98 61.49 201.00 C 61.45 197.98 62.04 194.99 62.01 191.98 C 61.99 170.99 62.01 150.01 62.00 129.03 M 218.25 130.12 C 194.17 142.17 170.09 154.22 146.00 166.24 C 146.00 194.92 146.00 223.60 146.00 252.28 C 171.05 235.74 195.92 218.95 220.96 202.41 C 247.12 220.38 273.34 238.25 299.44 256.31 C 299.59 225.94 299.43 195.56 299.52 165.18 C 274.48 153.93 249.52 142.54 224.53 131.19 C 222.54 130.44 220.31 128.56 218.25 130.12 Z" />
<path fill="#007bff" opacity="1.00" d=" M 440.45 110.57 C 450.98 107.14 464.24 111.22 469.26 121.53 C 473.39 130.61 472.34 142.76 464.65 149.68 C 455.09 158.83 437.91 157.70 429.55 147.48 C 425.74 142.93 424.52 136.82 424.97 131.02 C 424.67 121.68 431.54 113.04 440.45 110.57 Z" />
<path fill="#007bff" opacity="1.00" d=" M 874.60 133.65 C 878.73 133.36 882.84 132.77 886.97 132.38 C 887.04 147.58 886.98 162.79 887.00 178.00 C 901.67 178.00 916.33 178.00 931.00 178.00 C 931.00 189.33 931.00 200.67 931.00 212.00 C 916.33 212.00 901.67 212.00 887.00 212.00 C 887.00 235.69 887.00 259.39 887.00 283.09 C 887.16 289.18 889.45 295.63 894.52 299.34 C 898.15 302.29 902.97 302.98 907.49 303.28 C 914.19 303.06 920.69 301.16 926.76 298.37 C 930.25 309.72 934.12 320.96 937.77 332.26 C 930.62 335.27 923.09 337.28 915.42 338.38 C 900.49 339.85 884.27 339.77 871.13 331.55 C 859.93 325.08 852.58 313.36 849.66 300.96 C 848.36 295.07 847.32 289.06 847.48 283.02 C 847.52 259.34 847.49 235.67 847.50 212.00 C 837.49 212.00 827.49 212.01 817.49 211.99 C 817.50 200.66 817.50 189.33 817.49 178.00 C 827.49 177.99 837.49 178.00 847.50 178.00 C 847.50 164.19 847.50 150.37 847.50 136.56 C 848.22 136.51 849.68 136.42 850.40 136.37 C 853.39 135.93 856.40 135.64 859.41 135.34 C 861.45 135.06 863.53 134.94 865.59 134.66 C 868.59 134.36 871.60 134.06 874.60 133.65 Z" />
<path fill="#007bff" opacity="1.00" d=" M 729.58 173.61 C 739.22 172.33 748.94 172.23 758.60 173.30 C 770.45 174.39 782.26 177.61 792.55 183.68 C 797.54 186.49 801.94 190.17 806.54 193.55 C 799.41 202.55 791.60 211.00 784.46 219.99 C 778.25 214.48 771.04 209.95 762.95 207.85 C 751.74 205.01 739.78 204.57 728.57 207.61 C 723.51 209.00 718.19 211.90 716.33 217.12 C 714.35 222.19 716.17 228.31 720.38 231.70 C 725.67 236.27 732.89 237.34 739.57 238.38 C 757.91 239.82 777.34 240.90 793.45 250.76 C 803.36 256.54 810.46 266.68 812.66 277.92 C 815.63 291.32 813.48 306.16 805.39 317.44 C 796.31 330.32 781.32 337.85 766.10 340.65 C 755.43 343.01 744.46 342.59 733.62 342.40 C 717.79 341.22 701.81 337.38 688.46 328.50 C 682.04 324.43 676.25 319.46 670.83 314.15 C 677.36 304.70 683.96 295.30 690.42 285.81 C 703.81 298.71 722.24 305.26 740.39 307.71 C 750.80 308.86 762.66 307.10 770.18 299.17 C 772.65 296.85 773.78 293.50 774.43 290.26 C 775.00 285.06 772.09 279.80 767.43 277.43 C 761.16 274.19 753.97 273.48 747.05 272.80 C 729.90 271.77 712.14 268.95 697.27 259.82 C 687.96 254.17 680.35 245.17 677.85 234.43 C 674.65 221.22 676.77 206.22 685.58 195.54 C 696.19 182.22 713.24 176.13 729.58 173.61 Z" />
<path fill="#007bff" opacity="1.00" d=" M 997.83 177.64 C 1009.60 173.81 1022.09 173.02 1034.39 173.57 C 1051.81 175.39 1069.41 183.62 1078.93 198.84 C 1078.85 193.42 1079.57 188.04 1079.63 182.63 C 1079.89 180.92 1079.99 179.20 1080.13 177.47 C 1092.75 177.53 1105.37 177.49 1118.00 177.49 C 1118.00 230.66 1118.00 283.83 1118.00 337.00 C 1105.52 337.00 1093.05 337.00 1080.58 337.00 C 1080.40 333.12 1080.07 329.25 1079.66 325.40 C 1079.43 321.65 1078.97 317.91 1078.93 314.15 C 1069.44 331.39 1049.42 339.90 1030.60 341.71 C 1019.86 342.44 1008.95 341.01 998.57 338.19 C 982.94 333.62 968.55 324.08 959.29 310.55 C 950.23 297.63 945.94 281.96 944.60 266.38 C 943.49 246.60 946.03 225.79 956.78 208.72 C 965.87 193.61 981.07 182.73 997.83 177.64 M 999.39 220.34 C 990.10 228.33 985.18 240.35 984.29 252.40 C 983.86 255.45 983.86 258.56 984.30 261.61 C 985.10 275.09 991.37 288.63 1002.57 296.53 C 1015.82 306.13 1034.00 308.02 1049.23 302.36 C 1057.07 299.65 1063.60 294.07 1068.61 287.57 C 1075.97 277.19 1079.14 264.01 1077.72 251.40 C 1076.57 241.17 1072.68 231.01 1065.65 223.37 C 1049.19 204.83 1017.78 204.52 999.39 220.34 Z" />
<path fill="#007bff" opacity="1.00" d=" M 1193.59 173.61 C 1203.22 172.32 1212.93 172.23 1222.59 173.30 C 1234.94 174.43 1247.24 177.90 1257.85 184.45 C 1262.32 187.12 1266.33 190.46 1270.53 193.54 C 1263.43 202.57 1255.59 211.00 1248.46 219.99 C 1241.81 214.06 1233.94 209.32 1225.16 207.40 C 1214.26 204.96 1202.71 204.69 1191.92 207.80 C 1187.08 209.23 1182.09 212.13 1180.33 217.13 C 1178.35 222.20 1180.17 228.30 1184.36 231.69 C 1189.66 236.27 1196.89 237.34 1203.57 238.38 C 1214.05 239.30 1224.63 239.79 1234.92 242.14 C 1246.35 244.62 1257.76 249.15 1266.12 257.59 C 1278.57 270.71 1280.80 291.25 1274.62 307.79 C 1269.70 320.52 1258.82 330.24 1246.49 335.64 C 1231.17 342.45 1214.10 343.08 1197.62 342.40 C 1184.97 341.28 1172.15 339.04 1160.77 333.16 C 1151.02 328.52 1142.49 321.68 1134.83 314.15 C 1141.36 304.70 1147.95 295.30 1154.42 285.81 C 1167.81 298.71 1186.24 305.26 1204.40 307.71 C 1214.80 308.86 1226.66 307.10 1234.18 299.17 C 1236.66 296.84 1237.78 293.48 1238.44 290.24 C 1239.08 284.51 1235.43 278.91 1230.15 276.79 C 1219.04 272.00 1206.65 273.27 1194.98 271.16 C 1179.60 268.85 1163.86 263.90 1152.37 252.96 C 1136.47 237.25 1136.49 208.90 1151.85 192.85 C 1162.69 181.37 1178.32 175.95 1193.59 173.61 Z" />
<path fill="#007bff" opacity="1.00" d=" M 1516.18 178.34 C 1528.69 173.99 1542.11 172.80 1555.26 173.69 C 1572.55 175.44 1590.06 183.75 1599.42 198.90 C 1599.52 191.75 1600.06 184.62 1600.61 177.49 C 1613.24 177.51 1625.87 177.49 1638.50 177.50 C 1638.50 230.66 1638.50 283.83 1638.51 337.00 C 1626.03 337.00 1613.56 337.00 1601.10 337.00 C 1600.99 335.12 1600.92 333.24 1600.67 331.39 C 1600.34 325.62 1599.53 319.89 1599.40 314.11 C 1590.60 330.44 1572.07 338.81 1554.43 341.38 C 1546.37 342.59 1538.23 341.69 1530.23 340.63 C 1510.97 337.82 1492.30 327.95 1480.83 311.96 C 1472.08 300.21 1467.45 285.85 1465.63 271.42 C 1463.49 250.19 1465.63 227.49 1477.12 209.01 C 1485.78 194.41 1500.18 183.69 1516.18 178.34 M 1546.39 209.28 C 1530.81 210.60 1515.83 220.01 1509.33 234.45 C 1501.24 252.71 1503.21 276.00 1516.86 291.11 C 1531.45 306.61 1556.58 309.73 1575.16 299.93 C 1583.77 295.11 1590.64 287.29 1594.34 278.15 C 1602.55 258.98 1598.74 234.28 1582.87 220.14 C 1576.06 213.67 1566.81 210.34 1557.61 209.28 C 1553.88 208.85 1550.10 208.85 1546.39 209.28 Z" />
<path fill="#007bff" opacity="1.00" d=" M 1724.06 177.21 C 1733.13 173.11 1743.27 172.72 1753.07 173.01 C 1766.73 173.84 1780.30 178.83 1790.50 188.12 C 1784.18 199.52 1778.73 211.39 1772.23 222.70 C 1765.03 216.40 1755.72 212.34 1746.06 212.48 C 1735.85 212.02 1725.03 214.29 1716.98 220.89 C 1710.28 226.29 1706.36 234.49 1704.96 242.86 C 1703.36 251.48 1704.20 260.28 1704.00 268.99 C 1704.00 291.66 1704.00 314.33 1704.00 337.00 C 1690.83 337.00 1677.66 337.01 1664.49 337.00 C 1664.50 283.66 1664.50 230.33 1664.49 177.00 C 1676.79 176.62 1689.03 177.81 1701.33 177.49 C 1701.56 179.88 1701.92 182.26 1702.37 184.62 C 1702.43 185.06 1702.56 185.94 1702.62 186.38 C 1703.16 189.36 1703.58 192.36 1704.10 195.35 C 1708.75 187.50 1715.65 180.89 1724.06 177.21 Z" />
<path fill="#007bff" opacity="1.00" d=" M 1361.40 174.29 C 1367.44 173.81 1373.55 173.81 1379.59 174.29 C 1399.93 175.96 1419.81 185.13 1433.35 200.56 C 1449.40 218.27 1455.98 243.07 1453.71 266.59 C 1452.15 283.40 1445.90 299.89 1434.95 312.84 C 1422.48 327.91 1403.85 337.23 1384.57 339.68 C 1377.31 340.86 1369.93 340.53 1362.62 340.41 C 1344.36 338.87 1326.22 331.98 1312.88 319.18 C 1298.37 305.61 1290.02 286.23 1288.29 266.59 C 1287.73 259.27 1287.80 251.87 1288.61 244.57 C 1291.45 224.24 1301.23 204.43 1317.51 191.58 C 1329.86 181.39 1345.53 175.66 1361.40 174.29 M 1366.39 210.27 C 1359.49 210.98 1352.73 213.20 1346.93 217.04 C 1338.82 222.87 1332.69 231.42 1330.05 241.08 C 1324.12 260.08 1328.76 283.38 1344.96 295.98 C 1361.13 307.94 1386.12 306.80 1400.63 292.62 C 1420.21 272.46 1418.13 235.56 1395.63 218.37 C 1387.40 212.10 1376.66 209.17 1366.39 210.27 Z" />
<path fill="#007bff" opacity="1.00" d=" M 570.55 176.10 C 579.40 173.99 588.67 174.02 597.64 175.31 C 609.47 177.22 620.62 182.50 629.58 190.45 C 647.87 207.08 654.64 232.96 653.50 257.00 C 653.50 283.67 653.50 310.33 653.50 337.00 C 640.33 337.00 627.17 337.00 614.00 337.00 C 614.00 309.34 613.99 281.67 614.01 254.01 C 613.82 242.37 611.11 229.93 602.70 221.37 C 597.33 215.51 589.70 212.14 581.91 211.09 C 569.44 208.85 556.17 213.41 547.34 222.40 C 539.02 231.42 534.56 243.79 534.99 256.02 C 535.02 283.01 534.99 310.01 535.00 337.00 C 521.83 337.00 508.66 337.01 495.49 337.00 C 495.50 283.66 495.50 230.33 495.49 177.00 C 507.27 176.99 519.05 177.00 530.83 177.00 C 530.97 177.64 531.25 178.93 531.39 179.58 C 531.93 185.78 532.83 191.94 533.53 198.13 C 543.88 188.04 556.23 179.31 570.55 176.10 Z" />
<path fill="#007bff" opacity="1.00" d=" M 428.49 177.00 C 441.66 177.00 454.83 177.00 468.00 177.00 C 468.00 230.33 468.00 283.67 468.00 337.00 C 454.83 337.00 441.66 337.01 428.49 336.99 C 428.50 283.66 428.50 230.33 428.49 177.00 Z" />
<path fill="#007bff" opacity="1.00" d=" M 145.50 383.46 C 145.47 351.10 145.55 318.74 145.46 286.38 C 170.19 305.93 195.27 325.03 220.01 344.57 C 245.59 326.73 271.35 309.16 296.96 291.37 C 297.05 322.50 296.97 353.63 297.00 384.76 C 271.15 397.06 245.84 410.47 219.98 422.74 C 195.05 409.84 170.42 396.37 145.50 383.46 Z" />
</g>
</svg>
